<svg xmlns="http://www.w3.org/2000/svg" width="64" height="48" viewBox="0 0 64 48">
  <g id="Group_206" data-name="Group 206" transform="translate(-1010 -1016)">
    <rect id="Rectangle_2504" data-name="Rectangle 2504" width="64" height="48" transform="translate(1010 1016)" fill="rgba(0,0,0,0.7)"/>
    <path id="icon-images-white" d="M25.714,22.821v.857a2.571,2.571,0,0,1-2.571,2.571H2.571A2.571,2.571,0,0,1,0,23.679V9.964A2.571,2.571,0,0,1,2.571,7.393h.857V18.536a4.291,4.291,0,0,0,4.286,4.286Zm5.143-4.286V4.821A2.571,2.571,0,0,0,28.286,2.25H7.714A2.571,2.571,0,0,0,5.143,4.821V18.536a2.571,2.571,0,0,0,2.571,2.571H28.286A2.571,2.571,0,0,0,30.857,18.536ZM13.714,7.393a2.571,2.571,0,1,1-2.571-2.571A2.571,2.571,0,0,1,13.714,7.393ZM8.571,15.107l2.974-2.974a.643.643,0,0,1,.909,0l2.117,2.117,7.26-7.26a.643.643,0,0,1,.909,0l4.688,4.688v6H8.571Z" transform="translate(1026.571 1025.75)" fill="#fff"/>
  </g>
</svg>
