<svg xmlns="http://www.w3.org/2000/svg" width="216" height="146" viewBox="0 0 216 146">
  <path d="M 75.00,0.21 C 75.00,0.21 106.00,0.21 106.00,0.21 129.37,0.00 159.00,-4.32 174.09,18.00 182.97,31.15 181.00,50.73 181.00,66.00 181.00,66.00 181.00,91.00 181.00,91.00 181.00,110.25 181.18,127.31 163.00,139.24 159.50,141.54 155.99,142.80 152.00,143.96 146.67,145.51 141.52,145.99 136.00,146.00 136.00,146.00 92.00,146.00 92.00,146.00 73.55,146.00 57.38,146.75 44.33,131.00 33.62,118.08 35.00,97.85 35.00,82.00 35.00,82.00 35.00,58.00 35.00,58.00 35.00,38.00 35.33,15.81 56.00,5.38 62.28,2.21 68.22,1.45 75.00,0.21 Z M 78.00,14.14 C 71.65,15.22 66.57,15.42 61.00,19.11 52.28,24.88 50.96,31.48 49.72,41.00 49.72,41.00 49.00,84.00 49.00,84.00 49.00,96.03 47.73,113.46 56.21,122.96 62.51,130.02 71.92,131.89 81.00,132.00 81.00,132.00 134.00,132.00 134.00,132.00 143.06,131.99 153.11,130.79 159.67,123.82 167.60,115.40 166.88,103.66 167.00,93.00 167.00,93.00 167.82,83.00 167.82,83.00 167.82,83.00 167.04,75.00 167.04,75.00 166.85,70.57 167.38,68.99 167.68,65.00 167.68,65.00 167.00,47.00 167.00,47.00 166.99,41.51 166.61,37.33 165.08,32.00 158.99,10.82 131.08,14.00 114.00,14.14 114.00,14.14 78.00,14.14 78.00,14.14 Z M 144.02,25.74 C 157.13,22.89 159.42,38.84 150.96,42.26 139.94,46.72 132.03,32.33 144.02,25.74 Z M 104.00,35.44 C 143.01,30.56 161.65,81.71 130.00,104.37 125.36,107.69 119.61,109.68 114.00,110.56 78.86,116.10 56.83,74.68 79.47,48.04 86.14,40.18 94.24,37.24 104.00,35.44 Z M 106.00,49.31 C 97.03,50.95 90.78,54.46 86.67,63.00 79.32,78.27 90.25,95.88 107.00,96.91 133.29,98.52 141.99,60.39 117.00,51.09 113.11,49.65 110.12,49.08 106.00,49.31 Z" fill="#ffffff"/></svg>
