<svg xmlns="http://www.w3.org/2000/svg" width="216" height="146" viewBox="0 0 216 146"><path d="M 67.46,145.41 C 67.46,145.41 37.40,145.41 37.40,145.41 37.40,145.41 37.40,48.33 37.40,48.33 37.40,48.33 67.46,48.33 67.46,48.33 67.46,48.33 67.46,145.41 67.46,145.41 Z M 52.41,35.09 C 42.80,35.09 35.00,27.10 35.00,17.46 35.00,7.82 42.79,0.00 52.41,0.00 62.02,0.00 69.82,7.82 69.82,17.46 69.82,27.10 62.02,35.09 52.41,35.09 52.41,35.09 52.41,35.09 52.41,35.09 Z M 179.97,145.41 C 179.97,145.41 149.97,145.41 149.97,145.41 149.97,145.41 149.97,98.15 149.97,98.15 149.97,86.89 149.74,72.45 134.34,72.45 118.71,72.45 116.32,84.68 116.32,97.34 116.32,97.34 116.32,145.41 116.32,145.41 116.32,145.41 86.29,145.41 86.29,145.41 86.29,145.41 86.29,48.33 86.29,48.33 86.29,48.33 115.12,48.33 115.12,48.33 115.12,48.33 115.12,61.57 115.12,61.57 115.12,61.57 115.54,61.57 115.54,61.57 119.55,53.94 129.36,45.90 143.98,45.90 174.41,45.90 180.00,65.99 180.00,92.08 180.00,92.08 180.00,145.41 180.00,145.41 180.00,145.41 179.97,145.41 179.97,145.41 Z" fill="#ffffff" /></svg>
