<svg xmlns="http://www.w3.org/2000/svg" width="2.4in" height="1.62222in" viewBox="0 0 216 146"><path fill="#ffffff" d="M 76.00,18.21 C 76.00,18.21 132.00,18.21 132.00,18.21 132.00,18.21 151.00,19.00 151.00,19.00 159.20,19.10 171.91,20.12 177.89,26.11 183.84,32.05 184.45,41.09 185.08,49.00 186.37,65.05 186.37,80.95 185.08,97.00 184.39,105.69 183.98,114.59 176.96,120.78 171.90,125.23 166.30,125.49 160.00,126.16 160.00,126.16 144.00,127.09 144.00,127.09 144.00,127.09 132.00,128.00 132.00,128.00 132.00,128.00 84.00,128.00 84.00,128.00 84.00,128.00 65.00,127.00 65.00,127.00 57.49,126.91 44.76,125.82 39.04,120.78 32.02,114.59 31.61,105.69 30.92,97.00 30.92,97.00 30.00,61.00 30.00,61.00 30.00,61.00 30.98,48.00 30.98,48.00 31.52,39.94 32.64,30.88 39.04,25.22 47.49,17.75 65.32,19.94 76.00,18.21 Z M 131.00,74.00 C 131.00,74.00 117.00,64.58 117.00,64.58 117.00,64.58 93.00,52.00 93.00,52.00 93.00,52.00 93.00,95.00 93.00,95.00 93.00,95.00 131.00,74.00 131.00,74.00 Z"/></svg> 